<?xml version="1.0" encoding="utf-8"?>
<!-- Generator: Adobe Illustrator 23.0.1, SVG Export Plug-In . SVG Version: 6.00 Build 0)  -->
<svg version="1.1" id="Capa_1" xmlns="http://www.w3.org/2000/svg" xmlns:xlink="http://www.w3.org/1999/xlink" x="0px" y="0px"
	 viewBox="0 0 563.4 563.4" style="enable-background:new 0 0 563.4 563.4;" xml:space="preserve">
<g>
	<path d="M491.6,162h-21.7H436c19.8-12.4,32.8-32.9,32.8-56c0-37.8-34.7-68.6-77.3-68.6c-36.2,0-79,62-102.9,102.1
		C264.7,99.4,221.8,37.4,185.6,37.4c-42.6,0-77.3,30.8-77.3,68.6c0,23.1,13,43.6,32.8,56h-30.5H85.6c-24.8,0-44.9,20.1-44.9,44.9
		v71.2c0,17.6,10.2,32.9,25.1,40.2v162.9c0,24.8,20.1,44.9,44.9,44.9h359.2c24.8,0,44.9-20.1,44.9-44.9V316.5
		c13-7.9,21.7-22.1,21.7-38.4v-71.2C536.5,182.1,516.4,162,491.6,162z M85.6,282c-2.2,0-4-1.8-4-4v-71.2c0-2.2,1.8-4,4-4h182.6V282
		L85.6,282L85.6,282z M309,202.9h182.6c2.2,0,4,1.8,4,4v71.2c0,2.2-1.8,4-4,4H309V202.9z M391.5,78.3c19.7,0,36.4,12.7,36.4,27.7
		s-16.7,27.7-36.4,27.7H341C361.7,103.8,382.9,80.1,391.5,78.3z M185.1,78.2c9,1.8,30.4,25.6,51.1,55.5h-50.5
		c-19.7,0-36.4-12.7-36.4-27.7S165.9,78.3,185.1,78.2z M106.6,481.2V323h161.5v162.2H110.6C108.4,485.2,106.6,483.4,106.6,481.2z
		 M469.9,485.2H309V323h164.8v158.2C473.8,483.4,472.1,485.2,469.9,485.2z"/>
</g>
</svg>
