<?xml version="1.0" encoding="utf-8"?>
<!-- Generator: Adobe Illustrator 23.0.1, SVG Export Plug-In . SVG Version: 6.00 Build 0)  -->
<svg version="1.1" id="Capa_1" xmlns="http://www.w3.org/2000/svg" xmlns:xlink="http://www.w3.org/1999/xlink" x="0px" y="0px"
	 viewBox="0 0 484 484" style="enable-background:new 0 0 484 484;" xml:space="preserve">
<g>
	<g>
		<g>
			<rect x="27.3" y="265.3" transform="matrix(0.7074 -0.7069 0.7069 0.7074 -182.8373 104.9375)" width="16" height="16"/>
			<rect x="163.1" y="401.1" transform="matrix(0.7071 -0.7071 0.7071 0.7071 -239.1393 240.7815)" width="16" height="16"/>
			<rect x="185.7" y="423.7" transform="matrix(0.707 -0.7072 0.7072 0.707 -248.5727 263.497)" width="16" height="16"/>
			<path d="M324.3,89c-0.1,0.1-0.3,0.3-0.4,0.4c-15.6,15.6-15.6,40.9,0,56.6s41,15.6,56.6,0c15.6-15.6,15.6-40.9,0-56.6
				C365.1,73.8,339.9,73.6,324.3,89z M369.2,134.7c-9.4,9.4-24.6,9.4-33.9,0s-9.4-24.6,0-33.9s24.6-9.4,33.9,0c4.5,4.5,7,10.6,7,17
				C376.2,124.1,373.7,130.2,369.2,134.7z"/>
			<path d="M289.9,165.8L278,177.7c-7.9-5.6-17.1-9.1-26.7-10.3l-1.1-0.1l-1.1,0.1c-20.1,1.8-37.4,15-44.4,34
				c-5.9,17.3-1.4,36.4,11.5,49.3c8.6,8.6,11.6,21.4,7.7,32.9c-4.8,12.9-16.6,21.9-30.3,23.1c-13.7-1.2-25.5-10.2-30.3-23.1
				c-3.9-11.5-0.9-24.3,7.7-32.9l-11.3-11.3c-13,12.9-17.5,32-11.6,49.3c1.5,4.4,3.7,8.6,6.4,12.4l-11.8,11.8l11.3,11.3l11.9-11.9
				c7.9,5.6,17.1,9.1,26.6,10.3l1.1,0.1l1.1-0.1c20.1-1.8,37.4-15,44.4-34c5.9-17.3,1.4-36.4-11.5-49.3c-8.6-8.6-11.6-21.4-7.7-32.9
				c4.8-12.9,16.6-21.9,30.3-23.1c13.7,1.2,25.5,10.2,30.3,23.1c3.9,11.5,1,24.3-7.7,32.9l11.3,11.3c16.6-16.5,18.8-42.7,5.2-61.7
				l11.8-11.8L289.9,165.8z"/>
			<rect x="49.9" y="287.9" transform="matrix(0.7071 -0.7071 0.7071 0.7071 -192.2787 127.641)" width="16" height="16"/>
			<rect x="72.6" y="310.5" transform="matrix(0.7071 -0.7071 0.7071 0.7071 -201.6366 150.2628)" width="16" height="16"/>
			<rect x="95.2" y="333.2" transform="matrix(0.7074 -0.7069 0.7069 0.7074 -210.9582 172.7735)" width="16" height="16"/>
			<rect x="117.8" y="355.8" transform="matrix(0.7071 -0.7071 0.7071 0.7071 -220.4083 195.5107)" width="16" height="16"/>
			<rect x="140.4" y="378.4" transform="matrix(0.7071 -0.7071 0.7071 0.7071 -229.7714 218.1535)" width="16" height="16"/>
			<path d="M484,220.1l-9.7-126.3c-0.9-11.6-10-20.9-21.6-22l-16.2-1.6l-1.6-16.4c-1.1-11.4-10.2-20.5-21.6-21.6L258.6,17.2
				c-7.1-0.7-14.2,1.8-19.3,6.9L7,256.3c-9.4,9.4-9.4,24.6,0,33.9c0,0,0,0,0,0L176.7,460c9.4,9.4,24.6,9.4,33.9,0c0,0,0,0,0,0
				l5.7-5.7l5.7,5.7c9.4,9.4,24.6,9.4,33.9,0L477,238.9C482,233.9,484.5,227.1,484,220.1z M199.4,448.7c-3.1,3.1-8.2,3.1-11.3,0
				c0,0,0,0,0,0L18.3,279c-3.1-3.1-3.1-8.2,0-11.3c0,0,0,0,0,0L250.6,35.4c1.5-1.5,3.5-2.3,5.6-2.4h0.8l154.7,15.1
				c3.8,0.4,6.8,3.4,7.2,7.2l15,154.7c0.2,2.4-0.6,4.7-2.3,6.4L199.4,448.7z M465.7,227.6L244.6,448.7c-3.1,3.1-8.2,3.1-11.3,0
				l-5.7-5.7l215.3-215.3c5.1-5.1,7.6-12.1,6.9-19.3L438,86.4l13.1,1.3c3.9,0.4,6.9,3.5,7.2,7.4l9.7,126.3
				C468.2,223.6,467.3,225.9,465.7,227.6z"/>
		</g>
	</g>
</g>
</svg>
