<?xml version="1.0" encoding="utf-8"?>
<!-- Generator: Adobe Illustrator 23.0.1, SVG Export Plug-In . SVG Version: 6.00 Build 0)  -->
<svg version="1.1" id="Layer_1" xmlns="http://www.w3.org/2000/svg" xmlns:xlink="http://www.w3.org/1999/xlink" x="0px" y="0px"
	 viewBox="0 0 512 512" style="enable-background:new 0 0 512 512;" xml:space="preserve">
<style type="text/css">
	.st0{fill:#FFFFFF;}
</style>
<path class="st0" d="M416.5,0H96C71.2,0,51,20.2,51,45v422c0,24.8,20.2,45,45,45h320.5c24.8,0,45-20.2,45-45V45
	C461.5,20.2,441.3,0,416.5,0z M431.5,467c0,8.3-6.7,15-15,15H96c-8.3,0-15-6.7-15-15V45c0-8.3,6.7-15,15-15h320.5
	c8.3,0,15,6.7,15,15L431.5,467L431.5,467z"/>
<path class="st0" d="M256.2,201.9c4.1,0,8.1-1.7,10.9-4.7l41.4-44c0.1-0.1,0.2-0.3,0.4-0.4c6.4-7,13.6-16.7,13.4-30.3
	c-0.2-21.2-16.9-38.8-37.9-40.1c-10.5-0.7-20.5,2.7-28.3,9c-7.1-5.7-16.1-9-25.5-9c-22.4,0-40.6,18.2-40.6,40.6
	c0,13.7,7.9,23.3,13.2,29.7c0.2,0.3,0.4,0.5,0.6,0.7l41.4,43.9C248.1,200.2,252.1,201.9,256.2,201.9z M230.7,112.3
	c4.1,0,7.8,2.3,9.5,6c2.9,6.1,9.2,10.1,16,10.1h0c6.9,0,13-3.9,16-10.1c1.9-3.9,5.9-6.3,10.3-6c5.4,0.3,9.8,5,9.8,10.5
	c0,2.3-0.9,4.8-5.8,10c-0.1,0.1-0.1,0.1-0.2,0.2L256.2,165l-30.1-32c-2.8-3.4-6-7.4-6-10.2C220.1,117,224.8,112.3,230.7,112.3z"/>
<path class="st0" d="M363.8,244H225.9c-8.3,0-15,6.7-15,15c0,8.3,6.7,15,15,15h137.8c8.3,0,15-6.7,15-15
	C378.8,250.7,372.1,244,363.8,244z"/>
<path class="st0" d="M187.6,259c0,13.5-10.9,24.5-24.5,24.5c-13.5,0-24.5-11-24.5-24.5c0-13.5,10.9-24.5,24.5-24.5
	C176.7,234.5,187.6,245.5,187.6,259z"/>
<path class="st0" d="M363.8,320H225.9c-8.3,0-15,6.7-15,15s6.7,15,15,15h137.8c8.3,0,15-6.7,15-15S372.1,320,363.8,320z"/>
<path class="st0" d="M187.6,335c0,13.5-10.9,24.5-24.5,24.5c-13.5,0-24.5-11-24.5-24.5s10.9-24.5,24.5-24.5
	C176.7,310.5,187.6,321.5,187.6,335z"/>
<path class="st0" d="M363.8,396H225.9c-8.3,0-15,6.7-15,15s6.7,15,15,15h137.8c8.3,0,15-6.7,15-15S372.1,396,363.8,396z"/>
<path class="st0" d="M187.6,411c0,13.5-10.9,24.5-24.5,24.5c-13.5,0-24.5-11-24.5-24.5s10.9-24.5,24.5-24.5
	C176.7,386.5,187.6,397.5,187.6,411z"/>
</svg>
